# xmcd
#
# Track frame offsets:
#	150
#	13817
#	32163
#	51600
#	72652
#	93832
#	110258
#	134089
#	151066
#	164790
#	183090
#	202626
#	223685
#	244740
#	261149
#	285193
#
# Disc length: 4028 seconds
#
# Revision: 2
# Processed by: cddbd v1.5.2PL0 Copyright (c) Steve Scherf et al.
# Submitted via: EasyCDDAExtractor 15.2.0.1
#
DISCID=e50fba10
DTITLE=Gerson Rufino - Ele E Tudo
DYEAR=2006
DGENRE=Gospel
TTITLE0=Desabafo
TTITLE1=Ele E Tudo
TTITLE2=Exemplo De Aprovacao
TTITLE3=O Cego
TTITLE4=Uncao A Deus
TTITLE5=A Cruz E A Espada
TTITLE6=Adeus Lodebar
TTITLE7=Diante Do Altar
TTITLE8=Desabafo (Pb)
TTITLE9=Ele E Tudo (Pb)
TTITLE10=Exemplo De Aprovacao (Pb)
TTITLE11=O Cego (Pb)
TTITLE12=Uncao A Deus (Pb)
TTITLE13=A Cruz E A Espada (Pb)
TTITLE14=Adeus Lodebar (Pb)
TTITLE15=Diante Do Altar (Pb)
EXTD=
EXTT0=
EXTT1=
EXTT2=
EXTT3=
EXTT4=
EXTT5=
EXTT6=
EXTT7=
EXTT8=
EXTT9=
EXTT10=
EXTT11=
EXTT12=
EXTT13=
EXTT14=
EXTT15=
PLAYORDER=
